<svg fill="none" height="24" viewBox="0 0 24 24" width="24" xmlns="http://www.w3.org/2000/svg"><path clip-rule="evenodd" d="m18 2h-12c-2.20914 0-4 1.79086-4 4v12c0 1.8642 1.27532 3.4306 3.00111 3.8743.31928.082.65399.1257.99889.1257h12c.3449 0 .6796-.0437.9989-.1257 1.7258-.4437 3.0011-2.0101 3.0011-3.8743v-12c0-2.20914-1.7909-4-4-4zm-6 11c2.4617 0 4.5783 1.6062 5.5115 3.9071.4376 1.0789-.5048 2.0929-1.669 2.0929h-7.68498c-1.1642 0-2.1066-1.014-1.66903-2.0929.93325-2.3009 3.04985-3.9071 5.51151-3.9071zm0-8c1.6569 0 3 1.34315 3 3s-1.3431 3-3 3-3-1.34315-3-3 1.3431-3 3-3z" fill="#28303f" fill-rule="evenodd"/></svg>